<svg xmlns="http://www.w3.org/2000/svg" version="1.1" xmlns:xlink="http://www.w3.org/1999/xlink" xmlns:svgjs="http://svgjs.dev/svgjs" width="1000" height="1000" viewBox="0 0 1000 1000"><rect width="1000" height="1000" fill="#ffffff"></rect><g transform="matrix(0.7,0,0,0.7,149.57575757575756,410.0827607891392)"><svg viewBox="0 0 396 102" data-background-color="#4b0082" preserveAspectRatio="xMidYMid meet" height="257" width="1000" xmlns="http://www.w3.org/2000/svg" xmlns:xlink="http://www.w3.org/1999/xlink"><g id="tight-bounds" transform="matrix(1,0,0,1,0.2400000000000091,-0.018574766493571815)"><svg viewBox="0 0 395.52 102.03714819255609" height="102.03714819255609" width="395.52"><g><svg viewBox="0 0 397.4975999999999 102.54733393351886" height="102.03714819255609" width="395.52"><g><rect width="397.4975999999999" height="3.140889397518857" x="0" y="56.35550669657143" fill="#000000" opacity="1" stroke-width="0" stroke="transparent" fill-opacity="1" class="rect-o-0" data-fill-palette-color="secondary" rx="1%" id="o-0" data-palette-color="#fbfbf8"></rect></g><g transform="matrix(1,0,0,1,0.9887999999999693,67.71861964780457)"><svg viewBox="0 0 395.52 34.828714285714284" height="34.828714285714284" width="395.52"><g id="textblocktransform"><svg viewBox="0 0 395.52 34.828714285714284" height="34.828714285714284" width="395.52" id="textblock"><g><svg viewBox="0 0 395.52 34.828714285714284" height="34.828714285714284" width="395.52"><g transform="matrix(1,0,0,1,0,0)"><svg width="395.52" viewBox="3.0999999046325684 -38.599998474121094 447.9700012207031 39.44999694824219" height="34.828714285714284" data-palette-color="#fbfbf8"><path d="M15.25-23.15L34.35-23.15 34.35-2.65Q31.35-0.95 27.85-0.05 24.35 0.85 21.3 0.85L21.3 0.85Q15.4 0.85 11.3-1.63 7.2-4.1 5.15-8.55 3.1-13 3.1-18.9L3.1-18.9Q3.1-24.5 5.08-28.95 7.05-33.4 11.15-36 15.25-38.6 21.3-38.6L21.3-38.6Q24.6-38.6 26.88-37.98 29.15-37.35 32-36.1L32-36.1 32-32.3Q29.45-33.7 26.98-34.43 24.5-35.15 21.3-35.15L21.3-35.15Q16.85-35.15 13.63-33.1 10.4-31.05 8.7-27.4 7-23.75 7-19.05L7-19.05Q7-14.15 8.68-10.45 10.35-6.75 13.58-4.67 16.8-2.6 21.3-2.6L21.3-2.6Q23.65-2.6 25.9-3.18 28.15-3.75 30.55-4.8L30.55-4.8 30.55-19.6 15.25-19.6 15.25-23.15ZM69.05 0L64.55-11.85 48.55-11.85 44.1 0 40.1 0 54.6-38.35 58.5-38.35 73.05 0 69.05 0ZM49.9-15.4L63.2-15.4 56.55-33.05 49.9-15.4ZM110.3-37.9L114.35-37.9 114.35 0 110.5 0 110.5-31.9 98.2-14.85 96.15-14.85 83.85-31.9 83.85 0 80 0 80-37.9 84.1-37.9 97.2-19.75 110.3-37.9ZM129.49-3.45L148.39-3.45 148.39 0 125.64 0 125.64-37.9 148.14-37.9 148.14-34.45 129.49-34.45 129.49-20.8 145.64-20.8 145.64-17.35 129.49-17.35 129.49-3.45ZM179.19 0L168.99-16.6 160.89-16.6 160.89 0 157.04 0 157.04-37.9 169.84-37.9Q181.69-37.9 181.69-27.2L181.69-27.2Q181.69-22.8 179.57-20.18 177.44-17.55 173.14-16.85L173.14-16.85 183.59 0 179.19 0ZM160.89-34.45L160.89-20.05 169.84-20.05Q177.74-20.05 177.74-27.35L177.74-27.35Q177.74-31.05 175.77-32.75 173.79-34.45 169.84-34.45L169.84-34.45 160.89-34.45ZM191.59-22.8L191.59-37.9 195.19-37.9 195.19-22.8 191.59-22.8ZM216.39 0.85Q209.29 0.85 203.69-1.85L203.69-1.85 203.69-5.5Q209.24-2.6 216.39-2.6L216.39-2.6Q220.84-2.6 222.91-4.5 224.99-6.4 225.04-9.55L225.04-9.55Q225.04-12.5 223.09-14.03 221.14-15.55 217.64-16.55L217.64-16.55 214.24-17.5Q211.39-18.35 209.36-19.43 207.34-20.5 206.01-22.58 204.69-24.65 204.69-27.9L204.69-27.9Q204.69-33.15 207.71-35.88 210.74-38.6 216.24-38.6L216.24-38.6Q219.49-38.6 221.99-38 224.49-37.4 227.09-36.15L227.09-36.15 227.09-32.55Q222.04-35.15 216.24-35.15L216.24-35.15Q212.34-35.15 210.46-33.23 208.59-31.3 208.59-28L208.59-28Q208.64-25 210.41-23.53 212.19-22.05 215.69-21.1L215.69-21.1 219.14-20.15Q222.14-19.35 224.24-18.2 226.34-17.05 227.64-14.98 228.94-12.9 228.94-9.6L228.94-9.6Q228.89-4.75 225.56-1.95 222.24 0.85 216.39 0.85L216.39 0.85ZM258.53-23.15L277.63-23.15 277.63-2.65Q274.63-0.95 271.13-0.05 267.63 0.85 264.58 0.85L264.58 0.85Q258.68 0.85 254.58-1.63 250.48-4.1 248.43-8.55 246.38-13 246.38-18.9L246.38-18.9Q246.38-24.5 248.36-28.95 250.33-33.4 254.43-36 258.53-38.6 264.58-38.6L264.58-38.6Q267.88-38.6 270.16-37.98 272.43-37.35 275.28-36.1L275.28-36.1 275.28-32.3Q272.73-33.7 270.26-34.43 267.78-35.15 264.58-35.15L264.58-35.15Q260.13-35.15 256.91-33.1 253.68-31.05 251.98-27.4 250.28-23.75 250.28-19.05L250.28-19.05Q250.28-14.15 251.96-10.45 253.63-6.75 256.86-4.67 260.08-2.6 264.58-2.6L264.58-2.6Q266.93-2.6 269.18-3.18 271.43-3.75 273.83-4.8L273.83-4.8 273.83-19.6 258.53-19.6 258.53-23.15ZM312.33 0L307.83-11.85 291.83-11.85 287.38 0 283.38 0 297.88-38.35 301.78-38.35 316.33 0 312.33 0ZM293.18-15.4L306.48-15.4 299.83-33.05 293.18-15.4ZM327.13-3.55L343.53-3.55 343.53 0 323.28 0 323.28-37.9 327.13-37.9 327.13-3.55ZM375.77 0L371.27-11.85 355.27-11.85 350.82 0 346.82 0 361.32-38.35 365.22-38.35 379.77 0 375.77 0ZM356.62-15.4L369.92-15.4 363.27-33.05 356.62-15.4ZM415.12 0L410.57 0 399.27-16.8 387.92 0 383.37 0 396.82-19.5 384.27-37.9 388.77-37.9 399.27-22.3 409.77-37.9 414.27-37.9 401.72-19.5 415.12 0ZM451.07-37.9L436.87-14.65 436.87 0 433.07 0 433.07-14.65 418.92-37.9 422.92-37.9 434.97-17.9 447.07-37.9 451.07-37.9Z" opacity="1" transform="matrix(1,0,0,1,0,0)" fill="#000000" class="wordmark-text-0" data-fill-palette-color="primary" id="text-0"></path></svg></g></svg></g></svg></g></svg></g><g transform="matrix(1,0,0,1,166.68207371402016,0)"><svg viewBox="0 0 64.1334525719596 48.133283142857145" height="48.133283142857145" width="64.1334525719596"><g><svg xmlns="http://www.w3.org/2000/svg" xmlns:xlink="http://www.w3.org/1999/xlink" version="1.1" x="8" y="0" viewBox="7.734947204589844 7.735245704650879 84.53054809570312 84.5302505493164" enable-background="new 0 0 100 100" xml:space="preserve" height="48.133283142857145" width="48.133452571959594" class="icon-icon-0" data-fill-palette-color="accent" id="icon-0"><g fill="#ffffff" data-fill-palette-color="accent"><g fill="#ffffff" data-fill-palette-color="accent"><g fill="#ffffff" data-fill-palette-color="accent"><path d="M28.368 14.767C42.162 16.327 48.04 25.762 49.69 30.695c1.07 3.198 1.472 5.094 1.472 9.275 0 0.817 0.044 2.076-1.054 2.216-0.77 0.099-1.209-0.509-1.273-1.182-0.289-3.026-1.159-6.569-4.008-9.85-2.253-2.594-7.472-7.802-16.652-7.021-2.669 0.228-5.052-1.868-5.129-4.564C22.964 16.703 25.531 14.446 28.368 14.767z" fill="#000000" data-fill-palette-color="accent"></path><path d="M71.633 85.232c-13.794-1.561-19.671-10.995-21.322-15.929-1.07-3.198-1.472-5.094-1.472-9.275 0-0.817-0.044-2.076 1.054-2.216 0.77-0.099 1.209 0.509 1.273 1.182 0.289 3.026 1.159 6.569 4.008 9.85 2.253 2.594 7.472 7.802 16.652 7.021 2.669-0.228 5.052 1.868 5.129 4.564C77.037 83.296 74.47 85.553 71.633 85.232z" fill="#000000" data-fill-palette-color="accent"></path></g><g fill="#ffffff" data-fill-palette-color="accent"><path d="M14.768 71.633c1.56-13.794 10.995-19.672 15.928-21.322 3.198-1.07 5.094-1.472 9.276-1.472 0.817 0 2.076-0.045 2.216 1.054 0.098 0.77-0.509 1.209-1.182 1.273-3.026 0.288-6.569 1.159-9.849 4.008-2.594 2.254-7.802 7.473-7.021 16.652 0.228 2.669-1.868 5.052-4.564 5.129C16.704 77.036 14.447 74.47 14.768 71.633z" fill="#000000" data-fill-palette-color="accent"></path><path d="M85.233 28.367c-1.56 13.794-10.995 19.672-15.928 21.322-3.198 1.07-5.094 1.472-9.276 1.472-0.817 0-2.076 0.045-2.216-1.054-0.098-0.77 0.509-1.209 1.182-1.273 3.026-0.288 6.569-1.159 9.849-4.008 2.594-2.254 7.802-7.473 7.021-16.652-0.228-2.669 1.868-5.052 4.564-5.129C83.297 22.964 85.554 25.53 85.233 28.367z" fill="#000000" data-fill-palette-color="accent"></path></g></g><g fill="#ffffff" data-fill-palette-color="accent"><g fill="#ffffff" data-fill-palette-color="accent"><path d="M13.65 30.304c12.726-5.546 22.533-0.314 26.43 3.133 2.526 2.234 3.821 3.676 5.912 7.297 0.409 0.708 1.077 1.775 0.195 2.446-0.617 0.47-1.302 0.164-1.693-0.387-1.763-2.477-4.289-5.109-8.396-6.525-3.249-1.12-10.373-3.021-17.931 2.246-2.198 1.531-5.309 0.907-6.724-1.389C9.938 34.682 11.033 31.444 13.65 30.304z" fill="#000000" data-fill-palette-color="accent"></path><path d="M86.351 69.695c-12.726 5.546-22.533 0.314-26.43-3.133-2.526-2.234-3.821-3.676-5.912-7.297-0.409-0.708-1.077-1.775-0.196-2.446 0.618-0.47 1.302-0.164 1.694 0.387 1.763 2.477 4.289 5.109 8.396 6.525 3.249 1.12 10.373 3.021 17.931-2.245 2.198-1.532 5.309-0.908 6.724 1.388C90.063 65.317 88.968 68.555 86.351 69.695z" fill="#000000" data-fill-palette-color="accent"></path></g><g fill="#ffffff" data-fill-palette-color="accent"><path d="M30.304 86.351c-5.546-12.726-0.314-22.533 3.133-26.43 2.235-2.525 3.676-3.821 7.298-5.912 0.708-0.409 1.775-1.076 2.445-0.195 0.47 0.617 0.164 1.302-0.387 1.693-2.477 1.764-5.109 4.289-6.525 8.396-1.12 3.248-3.021 10.372 2.246 17.931 1.531 2.198 0.908 5.31-1.389 6.725C34.683 90.062 31.445 88.968 30.304 86.351z" fill="#000000" data-fill-palette-color="accent"></path><path d="M69.696 13.649c5.546 12.726 0.314 22.533-3.133 26.43-2.234 2.526-3.675 3.821-7.297 5.913-0.708 0.408-1.775 1.076-2.446 0.195-0.47-0.618-0.163-1.303 0.388-1.694 2.477-1.763 5.109-4.288 6.525-8.396 1.12-3.249 3.021-10.372-2.246-17.932-1.532-2.198-0.908-5.309 1.388-6.724C65.318 9.938 68.556 11.032 69.696 13.649z" fill="#000000" data-fill-palette-color="accent"></path></g></g><g fill="#ffffff" data-fill-palette-color="accent"><g fill="#ffffff" data-fill-palette-color="accent"><path d="M8.671 51.118c8.248-11.166 19.357-11.539 24.456-10.502 3.305 0.672 5.147 1.272 8.769 3.363 0.708 0.408 1.82 0.999 1.392 2.021-0.299 0.716-1.045 0.793-1.66 0.512-2.765-1.263-6.269-2.28-10.533-1.453-3.374 0.654-10.494 2.57-14.406 10.911-1.138 2.425-4.144 3.44-6.518 2.159C7.646 56.766 6.976 53.414 8.671 51.118z" fill="#000000" data-fill-palette-color="accent"></path><path d="M91.329 48.882C83.081 60.047 71.971 60.42 66.874 59.383c-3.305-0.672-5.147-1.272-8.769-3.363-0.708-0.408-1.82-0.999-1.393-2.021 0.3-0.716 1.046-0.793 1.66-0.512 2.766 1.264 6.269 2.28 10.534 1.453 3.373-0.654 10.493-2.569 14.406-10.91 1.138-2.426 4.144-3.441 6.517-2.16C92.354 43.233 93.025 46.585 91.329 48.882z" fill="#000000" data-fill-palette-color="accent"></path></g><g fill="#ffffff" data-fill-palette-color="accent"><path d="M51.119 91.329C39.953 83.081 39.58 71.972 40.617 66.874c0.673-3.305 1.272-5.147 3.364-8.77 0.409-0.708 1-1.819 2.02-1.392 0.716 0.3 0.793 1.045 0.512 1.66-1.263 2.765-2.28 6.269-1.453 10.533 0.654 3.374 2.57 10.493 10.911 14.406 2.425 1.138 3.44 4.144 2.159 6.518C56.766 92.354 53.415 93.025 51.119 91.329z" fill="#000000" data-fill-palette-color="accent"></path><path d="M48.882 8.672c11.166 8.247 11.538 19.356 10.501 24.455-0.672 3.305-1.271 5.147-3.362 8.77-0.409 0.707-1 1.819-2.021 1.392-0.716-0.3-0.792-1.046-0.511-1.661 1.263-2.765 2.28-6.268 1.453-10.533-0.655-3.373-2.57-10.492-10.911-14.406-2.426-1.137-3.44-4.144-2.159-6.517C43.234 7.646 46.585 6.976 48.882 8.672z" fill="#000000" data-fill-palette-color="accent"></path></g></g></g></svg></g></svg></g><g><rect width="90.1489537140202" height="3.140889397518857" y="43.99239374533829" x="230.81552628597976" fill="#000000" data-fill-palette-color="secondary"></rect><rect width="90.1489537140202" height="3.140889397518857" y="43.99239374533829" x="76.53311999999997" fill="#000000" data-fill-palette-color="secondary"></rect></g></svg></g><defs></defs></svg><rect width="395.52" height="102.03714819255609" fill="none" stroke="none" visibility="hidden"></rect></g></svg></g></svg>